<svg width="200" height="6" viewBox="0 0 200 6" fill="none" xmlns="http://www.w3.org/2000/svg">
<path d="M97 3.00944L97.1864 2.82302C98.7455 1.26392 101.273 1.2639 102.832 2.82298L103.175 3.16541C104.734 4.72448 107.262 4.72448 108.821 3.16542L109.163 2.82294C110.722 1.26387 113.25 1.26387 114.809 2.82294L115.258 3.27199C116.758 4.77219 119.191 4.77219 120.691 3.27199V3.27199C122.498 1.46492 125.428 1.46492 127.235 3.27199V3.27199C128.735 4.77219 131.167 4.77219 132.667 3.27199L133.116 2.82294C134.676 1.26388 137.203 1.26388 138.762 2.82294L139.105 3.16542C140.664 4.72448 143.192 4.72448 144.751 3.16542L145.093 2.82295C146.652 1.26388 149.18 1.26388 150.739 2.82295L151.5 3.58392" stroke="#444444" stroke-width="0.998058"/>
<path d="M0.999999 3.00944L1.18641 2.82302C2.74547 1.26392 5.27325 1.2639 6.83233 2.82298L7.17476 3.16541C8.73382 4.72448 11.2616 4.72448 12.8206 3.16542L13.1631 2.82294C14.7222 1.26387 17.2499 1.26387 18.809 2.82294L19.258 3.27199C20.7582 4.77219 23.1905 4.77219 24.6907 3.27199V3.27199C26.4978 1.46492 29.4276 1.46492 31.2347 3.27199V3.27199C32.7349 4.77219 35.1672 4.77219 36.6674 3.27199L37.1165 2.82294C38.6756 1.26388 41.2033 1.26388 42.7624 2.82294L43.1048 3.16542C44.6639 4.72448 47.1916 4.72448 48.7507 3.16542L49.0932 2.82295C50.6522 1.26388 53.18 1.26388 54.739 2.82295L55.5 3.58392" stroke="#444444" stroke-width="0.998058"/>
<path d="M145 3.00944L145.186 2.82302C146.745 1.26392 149.273 1.2639 150.832 2.82298L151.175 3.16541C152.734 4.72448 155.262 4.72448 156.821 3.16542L157.163 2.82294C158.722 1.26387 161.25 1.26387 162.809 2.82294L163.258 3.27199C164.758 4.77219 167.191 4.77219 168.691 3.27199V3.27199C170.498 1.46492 173.428 1.46492 175.235 3.27199V3.27199C176.735 4.77219 179.167 4.77219 180.667 3.27199L181.116 2.82294C182.676 1.26388 185.203 1.26388 186.762 2.82294L187.105 3.16542C188.664 4.72448 191.192 4.72448 192.751 3.16542L193.093 2.82295C194.652 1.26388 197.18 1.26388 198.739 2.82295L199.5 3.58392" stroke="#444444" stroke-width="0.998058"/>
<path d="M49 3.00944L49.1864 2.82302C50.7455 1.26392 53.2732 1.2639 54.8323 2.82298L55.1748 3.16541C56.7338 4.72448 59.2616 4.72448 60.8206 3.16542L61.1631 2.82294C62.7222 1.26387 65.2499 1.26387 66.809 2.82294L67.258 3.27199C68.7582 4.77219 71.1905 4.77219 72.6907 3.27199V3.27199C74.4978 1.46492 77.4276 1.46492 79.2347 3.27199V3.27199C80.7349 4.77219 83.1672 4.77219 84.6674 3.27199L85.1165 2.82294C86.6756 1.26388 89.2033 1.26388 90.7624 2.82294L91.1048 3.16542C92.6639 4.72448 95.1916 4.72448 96.7507 3.16542L97.0932 2.82295C98.6522 1.26388 101.18 1.26388 102.739 2.82295L103.5 3.58392" stroke="#444444" stroke-width="0.998058"/>
</svg>
