<svg width="69" height="15" viewBox="0 0 69 15" fill="none" xmlns="http://www.w3.org/2000/svg">
<rect x="60.9731" y="0.705733" width="9.00194" height="9.00194" transform="rotate(45 60.9731 0.705733)" stroke="#444444" stroke-width="0.998058"/>
<path d="M54.9731 6.9847L54.83 7.12941C53.2675 8.70958 50.7153 8.7096 49.1527 7.12945L48.8966 6.8705C47.3341 5.29038 44.7819 5.29038 43.2194 6.8705L42.9632 7.1295C41.4006 8.70962 38.8485 8.70962 37.286 7.1295L36.8826 6.72165C35.4011 5.22346 32.9813 5.22346 31.4997 6.72165V6.72165C29.7151 8.52628 26.8004 8.52628 25.0158 6.72165V6.72165C23.5343 5.22346 21.1145 5.22346 19.6329 6.72165L19.2296 7.12949C17.667 8.70962 15.1149 8.70962 13.5523 7.12949L13.2962 6.8705C11.7336 5.29037 9.18152 5.29038 7.61893 6.8705L7.36282 7.12949C5.80023 8.70962 3.24812 8.70962 1.68553 7.12949L0.973146 6.40911" stroke="#444444" stroke-width="0.998058"/>
</svg>
