<svg width="349" height="9" viewBox="0 0 349 9" fill="none" xmlns="http://www.w3.org/2000/svg">
<path d="M327.084 -3.83662e-05C327.084 4.51082 331.766 8.1676 337.542 8.1676C343.318 8.1676 348 4.51083 348 -3.65376e-05" stroke="#444444" stroke-width="1.66038"/>
<path d="M153.099 5.31865e-05C153.099 4.51092 157.781 8.16769 163.557 8.16769C169.333 8.16769 174.015 4.51092 174.015 5.50151e-05" stroke="#444444" stroke-width="1.66038"/>
<path d="M240.567 5.31865e-05C240.567 4.51092 245.249 8.16769 251.025 8.16769C256.801 8.16769 261.483 4.51092 261.483 5.50151e-05" stroke="#444444" stroke-width="1.66038"/>
<path d="M66.5818 5.31865e-05C66.5818 4.51092 71.2641 8.16769 77.0399 8.16769C82.8158 8.16769 87.498 4.51092 87.498 5.50151e-05" stroke="#444444" stroke-width="1.66038"/>
<path d="M283.35 5.31865e-05C283.35 4.51092 288.032 8.16769 293.808 8.16769C299.584 8.16769 304.266 4.51092 304.266 5.50151e-05" stroke="#444444" stroke-width="1.66038"/>
<path d="M109.365 5.31865e-05C109.365 4.51092 114.047 8.16769 119.823 8.16769C125.599 8.16769 130.281 4.51092 130.281 5.50151e-05" stroke="#444444" stroke-width="1.66038"/>
<path d="M196.833 5.31865e-05C196.833 4.51092 201.515 8.16769 207.291 8.16769C213.067 8.16769 217.749 4.51092 217.749 5.50151e-05" stroke="#444444" stroke-width="1.66038"/>
<path d="M22.848 5.31865e-05C22.848 4.51092 27.5302 8.16769 33.3061 8.16769C39.0819 8.16769 43.7642 4.51092 43.7642 5.50151e-05" stroke="#444444" stroke-width="1.66038"/>
<path d="M305.217 5.31865e-05C305.217 4.51092 309.899 8.16769 315.675 8.16769C321.451 8.16769 326.133 4.51092 326.133 5.50151e-05" stroke="#444444" stroke-width="1.66038"/>
<path d="M131.232 5.31865e-05C131.232 4.51092 135.914 8.16769 141.69 8.16769C147.466 8.16769 152.148 4.51092 152.148 5.50151e-05" stroke="#444444" stroke-width="1.66038"/>
<path d="M218.7 5.31865e-05C218.7 4.51092 223.382 8.16769 229.158 8.16769C234.933 8.16769 239.616 4.51092 239.616 5.50151e-05" stroke="#444444" stroke-width="1.66038"/>
<path d="M44.7147 5.31865e-05C44.7147 4.51092 49.3969 8.16769 55.1728 8.16769C60.9486 8.16769 65.6309 4.51092 65.6309 5.50151e-05" stroke="#444444" stroke-width="1.66038"/>
<path d="M261.483 5.31865e-05C261.483 4.51092 266.165 8.16769 271.941 8.16769C277.717 8.16769 282.399 4.51092 282.399 5.50151e-05" stroke="#444444" stroke-width="1.66038"/>
<path d="M87.4979 5.31865e-05C87.4979 4.51092 92.1801 8.16769 97.956 8.16769C103.732 8.16769 108.414 4.51092 108.414 5.50151e-05" stroke="#444444" stroke-width="1.66038"/>
<path d="M174.966 5.31865e-05C174.966 4.51092 179.648 8.16769 185.424 8.16769C191.2 8.16769 195.882 4.51092 195.882 5.50151e-05" stroke="#444444" stroke-width="1.66038"/>
<path d="M0.981501 5.31865e-05C0.981501 4.51092 5.66375 8.16769 11.4396 8.16769C17.2155 8.16769 21.8977 4.51092 21.8977 5.50151e-05" stroke="#444444" stroke-width="1.66038"/>
</svg>
