<svg width="349" height="13" viewBox="0 0 349 13" fill="none" xmlns="http://www.w3.org/2000/svg">
<path d="M21.8977 12.1677C21.8977 7.65684 17.2154 4.00006 11.4395 4.00006C5.6637 4.00006 0.981445 7.65684 0.981445 12.1677" stroke="#444444"/>
<path d="M195.883 12.1676C195.883 7.65672 191.201 3.99994 185.425 3.99994C179.649 3.99994 174.967 7.65672 174.967 12.1676" stroke="#444444"/>
<path d="M108.415 12.1676C108.415 7.65672 103.732 3.99994 97.9566 3.99994C92.1808 3.99994 87.4985 7.65672 87.4985 12.1676" stroke="#444444"/>
<path d="M282.4 12.1676C282.4 7.65672 277.717 3.99994 271.942 3.99994C266.166 3.99994 261.483 7.65672 261.483 12.1676" stroke="#444444"/>
<path d="M65.6315 12.1676C65.6315 7.65675 60.9493 3.99997 55.1734 3.99997C49.3976 3.99997 44.7153 7.65675 44.7153 12.1676" stroke="#444444"/>
<path d="M239.616 12.1676C239.616 7.65672 234.934 3.99994 229.158 3.99994C223.382 3.99994 218.7 7.65672 218.7 12.1676" stroke="#444444"/>
<path d="M152.148 12.1676C152.148 7.65672 147.466 3.99994 141.69 3.99994C135.914 3.99994 131.232 7.65672 131.232 12.1676" stroke="#444444"/>
<path d="M326.133 12.1676C326.133 7.65672 321.451 3.99994 315.675 3.99994C309.9 3.99994 305.217 7.65672 305.217 12.1676" stroke="#444444"/>
<path d="M43.7648 12.1676C43.7648 7.65675 39.0826 3.99997 33.3067 3.99997C27.5309 3.99997 22.8486 7.65675 22.8486 12.1676" stroke="#444444"/>
<path d="M217.749 12.1676C217.749 7.65672 213.067 3.99994 207.291 3.99994C201.515 3.99994 196.833 7.65672 196.833 12.1676" stroke="#444444"/>
<path d="M130.282 12.1676C130.282 7.65672 125.6 3.99994 119.824 3.99994C114.048 3.99994 109.366 7.65672 109.366 12.1676" stroke="#444444"/>
<path d="M304.267 12.1676C304.267 7.65672 299.585 3.99994 293.809 3.99994C288.033 3.99994 283.351 7.65672 283.351 12.1676" stroke="#444444"/>
<path d="M87.4987 12.1676C87.4987 7.65672 82.8165 3.99994 77.0406 3.99994C71.2648 3.99994 66.5825 7.65672 66.5825 12.1676" stroke="#444444"/>
<path d="M261.484 12.1676C261.484 7.65672 256.801 3.99994 251.025 3.99994C245.25 3.99994 240.567 7.65672 240.567 12.1676" stroke="#444444"/>
<path d="M174.016 12.1676C174.016 7.65672 169.333 3.99994 163.557 3.99994C157.782 3.99994 153.099 7.65672 153.099 12.1676" stroke="#444444"/>
<path d="M348 12.1676C348 7.65672 343.318 3.99994 337.542 3.99994C331.766 3.99994 327.084 7.65672 327.084 12.1676" stroke="#444444"/>
<path d="M327.084 2.2669e-05C327.084 4.51089 331.766 8.16766 337.542 8.16766C343.318 8.16766 348 4.51089 348 2.44975e-05" stroke="#444444"/>
<path d="M153.099 0.000114222C153.099 4.51098 157.781 8.16775 163.557 8.16775C169.333 8.16775 174.015 4.51098 174.015 0.00011605" stroke="#444444"/>
<path d="M240.567 0.000114222C240.567 4.51098 245.249 8.16775 251.025 8.16775C256.801 8.16775 261.483 4.51098 261.483 0.00011605" stroke="#444444"/>
<path d="M66.5818 0.000114222C66.5818 4.51098 71.2641 8.16775 77.0399 8.16775C82.8158 8.16775 87.498 4.51098 87.498 0.00011605" stroke="#444444"/>
<path d="M283.35 0.000114222C283.35 4.51098 288.032 8.16775 293.808 8.16775C299.584 8.16775 304.266 4.51098 304.266 0.00011605" stroke="#444444"/>
<path d="M109.365 0.000114222C109.365 4.51098 114.047 8.16775 119.823 8.16775C125.599 8.16775 130.281 4.51098 130.281 0.00011605" stroke="#444444"/>
<path d="M196.833 0.000114222C196.833 4.51098 201.515 8.16775 207.291 8.16775C213.067 8.16775 217.749 4.51098 217.749 0.00011605" stroke="#444444"/>
<path d="M22.848 0.000114222C22.848 4.51098 27.5302 8.16775 33.3061 8.16775C39.0819 8.16775 43.7642 4.51098 43.7642 0.00011605" stroke="#444444"/>
<path d="M305.217 0.000114222C305.217 4.51098 309.899 8.16775 315.675 8.16775C321.451 8.16775 326.133 4.51098 326.133 0.00011605" stroke="#444444"/>
<path d="M131.232 0.000114222C131.232 4.51098 135.914 8.16775 141.69 8.16775C147.466 8.16775 152.148 4.51098 152.148 0.00011605" stroke="#444444"/>
<path d="M218.7 0.000114222C218.7 4.51098 223.382 8.16775 229.158 8.16775C234.933 8.16775 239.616 4.51098 239.616 0.00011605" stroke="#444444"/>
<path d="M44.7147 0.000114222C44.7147 4.51098 49.3969 8.16775 55.1728 8.16775C60.9486 8.16775 65.6309 4.51098 65.6309 0.00011605" stroke="#444444"/>
<path d="M261.483 0.000114222C261.483 4.51098 266.165 8.16775 271.941 8.16775C277.717 8.16775 282.399 4.51098 282.399 0.00011605" stroke="#444444"/>
<path d="M87.4979 0.000114222C87.4979 4.51098 92.1801 8.16775 97.956 8.16775C103.732 8.16775 108.414 4.51098 108.414 0.00011605" stroke="#444444"/>
<path d="M174.966 0.000114222C174.966 4.51098 179.648 8.16775 185.424 8.16775C191.2 8.16775 195.882 4.51098 195.882 0.00011605" stroke="#444444"/>
<path d="M0.981501 0.000114222C0.981501 4.51098 5.66375 8.16775 11.4396 8.16775C17.2155 8.16775 21.8977 4.51098 21.8977 0.00011605" stroke="#444444"/>
</svg>
